PathFileType	4	(X/Y/Z)	D:\TRACE\v60_Jaco2_6-2-23\v60_baseline_3-v60.trc
DataRate	CameraRate	NumFrames	NumMarkers	Units	OrigDataRate	OrigDataStartFrame	OrigNumFrames
100.00	100.00	      35	9	mm	100.00	1	      6500
Frame#	Time	front left toe			Front right toe			aft left toe			aft right toe			Arm			FL body			FR body			AL Body			AR Body			
		X1	Y1	Z1	X2	Y2	Z2	X3	Y3	Z3	X4	Y4	Z4	X5	Y5	Z5	X6	Y6	Z6	X7	Y7	Z7	X8	Y8	Z8	X9	Y9	Z9	

1	0.000	-183.81252	20.12383	-131.81993	228.12047	18.23619	-160.37198	-138.28271	16.74349	475.42270	265.34583	19.82176	477.21399	-91.77626	1206.52222	-284.13116	-64.14621	575.51166	-274.80728	96.28753	575.93420	-284.81058	-6.23521	580.27515	668.96161	150.69370	574.55219	660.50348	
2	0.010	-183.78760	20.13818	-131.77946	228.11432	18.21520	-160.42833	-138.29140	16.74478	475.41370	265.33377	19.83134	477.20740	-91.76682	1206.55347	-284.11264	-64.11944	575.51624	-274.81113	96.30480	575.94818	-284.85461	-6.23098	580.28461	668.97205	150.67256	574.55548	660.47974	
3	0.020	-183.80020	20.10011	-131.79478	228.09155	18.22452	-160.41537	-138.31660	16.76261	475.43021	265.34106	19.84351	477.19223	-91.80653	1206.55078	-284.07181	-64.04122	575.50299	-274.83093	96.24215	575.93085	-284.86420	-6.24051	580.29865	668.97302	150.66708	574.56549	660.49518	
4	0.030	-183.77086	20.05550	-131.80252	228.12029	18.24055	-160.39616	-138.31607	16.74943	475.44305	265.35431	19.84581	477.24228	-91.83833	1206.50781	-284.09210	-64.09957	575.52997	-274.76553	96.28035	575.95648	-284.85416	-6.22258	580.25354	668.95349	150.71057	574.53461	660.48822	
5	0.040	-183.79774	20.12659	-131.81506	228.09352	18.25317	-160.39903	-138.31329	16.77904	475.43616	265.30020	19.84410	477.24026	-91.88048	1206.50732	-284.08530	-64.06152	575.51996	-274.79211	96.25840	575.90961	-284.87393	-6.25728	580.28723	668.94983	150.66446	574.55432	660.50616	
6	0.050	-183.78702	20.09380	-131.80484	228.17615	18.25711	-160.37022	-138.27777	16.77610	475.43832	265.36786	19.85491	477.22174	-91.81044	1206.53979	-284.08670	-64.06300	575.49500	-274.81015	96.24756	575.93079	-284.89047	-6.17512	580.25098	668.96307	150.73532	574.53827	660.48474	
7	0.060	-183.76927	20.14912	-131.82405	228.12433	18.24521	-160.34642	-138.29588	16.77205	475.43634	265.31693	19.85406	477.21906	-91.78366	1206.55835	-284.08359	-64.06939	575.51123	-274.81076	96.21458	575.93781	-284.85132	-6.22162	580.28717	668.98346	150.69003	574.54279	660.49738	
8	0.070	-183.80841	20.11973	-131.80583	228.12724	18.18957	-160.33017	-138.28322	16.74804	475.43692	265.33673	19.82134	477.19543	-91.82806	1206.51025	-284.10187	-64.01752	575.47339	-274.81479	96.23516	575.96362	-284.91110	-5.69028	580.24323	669.66302	150.70119	574.54858	660.49603	
9	0.080	-183.81889	20.08041	-131.77742	228.11707	18.19728	-160.33337	-138.29756	16.75740	475.46457	265.21890	19.79242	477.20914	-91.84776	1206.50745	-284.06891	-64.07499	575.51990	-274.80511	96.28710	575.95612	-284.87296	-6.22514	580.25446	668.92255	150.67406	574.54382	660.49811	
10	0.090	-183.80283	20.08959	-131.78320	228.13824	18.22486	-160.29800	-138.36945	16.80308	475.45721	265.28598	19.78811	477.20148	-91.85364	1206.46924	-284.11310	-64.05137	575.49628	-274.82053	96.21492	575.93872	-284.89386	-6.24075	580.24030	668.91852	150.73619	574.51355	660.45746	
11	0.100	-183.80138	20.11066	-131.80667	228.13577	18.20517	-160.32430	-138.27577	16.72865	475.42355	265.34805	19.80355	477.23880	-91.84732	1206.54199	-284.08026	-64.11811	575.51556	-274.82349	96.22708	575.95056	-284.86438	-6.21845	580.27850	668.94440	150.68631	574.55139	660.48828	
12	0.110	-183.80722	20.15642	-131.82596	228.17180	18.20546	-160.33507	-138.27682	16.78565	475.43814	265.35965	19.83796	477.12793	-91.78129	1206.56018	-284.11359	-63.97410	575.45959	-274.78513	96.26318	575.93237	-284.83859	-6.19717	580.27148	668.94537	150.75223	574.56934	660.47821	
13	0.120	-183.83394	20.12634	-131.79306	228.11443	18.20106	-160.33899	-138.32700	16.77488	475.43533	265.28186	19.76011	477.14902	-91.87006	1206.55225	-284.11761	-64.14420	575.54260	-274.78818	96.23677	575.92633	-284.87250	-6.25386	580.28589	668.95898	150.72038	574.56470	660.50110	
14	0.130	-183.79417	20.12630	-131.82036	228.11742	18.19921	-160.32837	-138.32059	16.78547	475.43735	265.32803	19.76880	477.19232	-91.82587	1206.53979	-284.08282	-64.10575	575.52356	-274.83255	96.26662	575.95789	-284.87961	-6.20114	580.28918	668.95099	150.72447	574.55609	660.49792	
15	0.140	-183.77895	20.10172	-131.78467	228.12283	18.22301	-160.32014	-138.29803	16.78309	475.44714	265.26157	19.72390	477.17047	-91.83476	1206.53101	-284.09830	-64.15744	575.54462	-274.81046	96.28079	575.94458	-284.82669	-6.22521	580.29938	668.92633	150.68211	574.53857	660.48810	
16	0.150	-183.80685	20.16378	-131.82733	228.12311	18.22548	-160.34528	-138.31248	16.78224	475.43512	265.32321	19.79915	477.20636	-91.84490	1206.52466	-284.12814	-64.10762	575.53357	-274.79724	96.25543	575.90991	-284.86197	-6.24042	580.26575	668.96057	150.71701	574.53815	660.46472	
17	0.160	-183.79716	20.09820	-131.82486	228.15089	18.22968	-160.30760	-138.30385	16.78149	475.42905	265.34274	19.80703	477.18130	-91.79500	1206.55151	-284.10989	-64.00327	575.47467	-274.81863	96.18304	575.91077	-284.88898	-6.23868	580.26898	668.91071	150.67424	574.56262	660.50507	
18	0.170	-183.80856	20.12012	-131.83990	228.11501	18.19671	-160.32173	-138.30240	16.75479	475.43503	265.38489	19.80211	477.15613	-91.77590	1206.53967	-284.14832	-64.04800	575.50616	-274.83276	96.24007	575.90332	-284.85532	-6.22234	580.25476	668.92145	150.69507	574.54260	660.47888	
19	0.180	-183.80515	20.10713	-131.78099	228.09650	18.22701	-160.35019	-138.34436	16.76991	475.43011	265.24881	19.74287	477.17072	-91.84560	1206.47485	-284.07816	-64.11058	575.54370	-274.78397	96.15041	575.87823	-284.91211	-6.30421	580.27002	668.93561	150.64742	574.53577	660.50208	
20	0.190	-183.79042	20.07153	-131.77568	228.12975	18.21434	-160.32375	-138.29530	16.75248	475.43121	265.30066	19.73969	477.13315	-91.81890	1206.46863	-284.07291	-63.97827	575.48157	-274.81540	96.29595	575.88550	-284.84186	-6.30543	580.27765	668.93036	150.69057	574.53784	660.47180	
21	0.200	-183.80539	20.06313	-131.77914	228.07823	18.21876	-160.33221	-138.34309	16.79276	475.42743	265.15399	19.74014	477.16162	-91.84832	1206.50830	-284.07669	-64.13346	575.54749	-274.80295	96.21145	575.91217	-284.86020	-6.34937	580.26605	668.91962	150.64342	574.54071	660.48114	
22	0.210	-183.78429	20.06622	-131.78125	228.08727	18.18940	-160.33327	-138.30280	16.76729	475.43597	265.26282	19.73420	477.09546	-91.82146	1206.51355	-284.11591	-64.13712	575.56317	-274.81271	96.25187	575.94745	-284.86060	-6.25453	580.26172	668.91895	150.66670	574.54352	660.47699	
23	0.220	-183.78770	20.10502	-131.80782	228.09474	18.21829	-160.35170	-138.26221	16.73336	475.42206	265.29166	19.82604	477.20020	-91.76855	1206.56433	-284.10095	-64.08124	575.51044	-274.81683	96.20273	575.89264	-284.86429	-6.24839	580.26355	668.95453	150.64806	574.56281	660.48688	
24	0.230	-183.81223	20.12308	-131.80658	228.13060	18.18740	-160.36380	-138.33118	16.76414	475.42480	265.34955	19.82152	477.16663	-91.76438	1206.53149	-284.11084	-64.02079	575.47357	-274.81503	96.22173	575.92139	-284.87177	-6.24198	580.22955	668.94110	150.70685	574.55072	660.45215	
25	0.240	-183.81339	20.09149	-131.79922	228.10713	18.23694	-160.32651	-138.32442	16.75816	475.45053	265.26047	19.83300	477.17514	-91.82067	1206.50977	-284.08307	-64.09557	575.52820	-274.78275	96.20267	575.93134	-284.89545	-6.30091	580.27020	668.93042	150.66180	574.52954	660.50037	
26	0.250	-183.78882	20.07994	-131.79053	228.15453	18.21281	-160.33397	-138.30325	16.73408	475.45770	265.29660	19.84435	477.18158	-91.78278	1206.49670	-284.10104	-64.14351	575.54401	-274.83505	96.29941	575.94159	-284.83093	-6.22807	580.27496	668.95160	150.70334	574.52283	660.47839	
27	0.260	-183.80321	20.12906	-131.79745	228.13622	18.23324	-160.32521	-138.31642	16.76112	475.42542	265.24371	19.81093	477.16382	-91.80139	1206.54016	-284.07422	-64.06849	575.52515	-274.79718	96.22701	575.91736	-284.87173	-6.33356	580.27753	668.94910	150.66498	574.54749	660.46552	
28	0.270	-183.80898	20.10196	-131.79071	228.14027	18.23103	-160.32175	-138.27330	16.73923	475.44067	265.38281	19.88284	477.16147	-91.76561	1206.52930	-284.12109	-64.15688	575.56384	-274.83234	96.25068	575.92950	-284.85095	-6.23676	580.28339	668.96228	150.70973	574.55127	660.49634	
29	0.280	-183.78630	20.11357	-131.79022	228.15065	18.23734	-160.30977	-138.26578	16.72887	475.41486	265.34665	19.84917	477.20993	-91.76545	1206.52710	-284.10800	-63.99324	575.46368	-274.82153	96.35449	575.92236	-284.80029	-6.19067	580.26892	668.94171	150.70020	574.55463	660.50549	
30	0.290	-183.79977	20.11442	-131.78746	228.07047	18.21342	-160.33885	-138.35039	16.76163	475.42456	265.21353	19.76262	477.15634	-91.88665	1206.53076	-284.10956	-64.12882	575.51019	-274.77014	96.28228	575.93677	-284.85632	-6.17303	580.19061	669.18750	150.64444	574.53204	660.49274	
31	0.300	-183.81787	20.11118	-131.79822	228.12337	18.20977	-160.34425	-138.36993	16.79941	475.45657	265.27820	19.81140	477.20340	-91.85062	1206.53198	-284.05194	-64.12866	575.54510	-274.77325	96.26536	575.93213	-284.84006	-6.23624	580.27478	668.95374	150.62447	574.55145	660.50812	
32	0.310	-183.81354	20.09219	-131.80354	228.12636	18.22565	-160.31389	-138.30257	16.75212	475.42282	265.36417	19.85186	477.17599	-91.76635	1206.54150	-284.13913	-64.12356	575.53143	-274.79825	96.25123	575.91833	-284.86105	-6.20696	580.26904	668.96814	150.69528	574.57092	660.48663	
33	0.320	-183.82118	20.13855	-131.82274	228.05809	18.21204	-160.32425	-138.30818	16.75459	475.42200	265.33011	19.83382	477.18945	-91.86852	1206.56421	-284.11133	-64.06020	575.50769	-274.82449	96.23903	575.92291	-284.86539	-6.28082	580.29401	668.94952	150.68156	574.55267	660.49664	
34	0.330	-183.76794	20.13326	-131.83833	228.11317	18.20782	-160.29379	-138.24649	16.73805	475.42148	265.32278	19.82691	477.13440	-91.73571	1206.54871	-284.11508	-64.02409	575.50146	-274.79965	96.24924	575.94122	-284.86633	-6.18266	580.24670	668.95483	150.67056	574.56329	660.49445	
35	0.340	-183.79282	20.13178	-131.81618	228.07289	18.21843	-160.28085	-138.30981	16.74407	475.42096	265.23984	19.78134	477.16675	-91.84521	1206.57251	-284.08917	-64.09073	575.52374	-274.80542	96.21564	575.89026	-284.87180	-6.29016	580.27911	668.97900	150.65189	574.55023	660.50787	
